<svg width="19" height="18" viewBox="0 0 19 18" fill="none" xmlns="http://www.w3.org/2000/svg">
<path d="M15.8411 3.5454C15.8359 3.53574 15.8273 3.52817 15.8168 3.52405C14.6054 2.99053 13.3271 2.6101 12.0137 2.39226C12.0018 2.39013 11.9895 2.39167 11.9785 2.39665C11.9675 2.40163 11.9585 2.40981 11.9526 2.42002C11.7785 2.72329 11.6205 3.0348 11.4792 3.35336C10.0634 3.14707 8.62341 3.14707 7.2077 3.35336C7.0654 3.03399 6.90485 2.7224 6.72678 2.42002C6.72067 2.41003 6.71157 2.40204 6.70067 2.39709C6.68976 2.39214 6.67756 2.39046 6.66564 2.39226C5.35216 2.60964 4.07372 2.99011 2.86249 3.52408C2.85212 3.5283 2.84338 3.5355 2.83745 3.5447C0.415238 7.01692 -0.248298 10.4038 0.0772101 13.7487C0.0781258 13.7569 0.0807496 13.7648 0.0849256 13.772C0.0891016 13.7792 0.0947444 13.7855 0.101518 13.7906C1.51195 14.7931 3.08954 15.5582 4.76696 16.0535C4.77877 16.0569 4.79139 16.0567 4.8031 16.0531C4.81482 16.0494 4.82509 16.0423 4.83251 16.0329C5.19278 15.5623 5.51201 15.064 5.78695 14.5431C5.79073 14.536 5.79289 14.5281 5.79328 14.5201C5.79367 14.5121 5.7923 14.5041 5.78924 14.4967C5.78618 14.4892 5.78151 14.4825 5.77553 14.4769C5.76956 14.4713 5.76241 14.4669 5.75457 14.4642C5.25117 14.2793 4.76382 14.0564 4.29709 13.7976C4.28862 13.7928 4.2815 13.7861 4.27636 13.7781C4.27123 13.77 4.26824 13.7609 4.26766 13.7515C4.26708 13.742 4.26892 13.7326 4.27303 13.724C4.27714 13.7155 4.28338 13.708 4.29122 13.7023C4.38915 13.6319 4.48714 13.5586 4.58066 13.4846C4.58897 13.478 4.59902 13.4738 4.60969 13.4724C4.62035 13.4711 4.63121 13.4726 4.64103 13.4768C7.69876 14.8163 11.0092 14.8163 14.0307 13.4768C14.0405 13.4723 14.0515 13.4706 14.0623 13.4718C14.0732 13.4731 14.0834 13.4773 14.0918 13.4839C14.1854 13.5579 14.2833 13.6319 14.382 13.7023C14.3899 13.7079 14.3962 13.7154 14.4004 13.7239C14.4045 13.7325 14.4064 13.7419 14.4059 13.7513C14.4054 13.7607 14.4025 13.7699 14.3974 13.7779C14.3924 13.786 14.3853 13.7928 14.3769 13.7976C13.9112 14.0586 13.4234 14.2813 12.9187 14.4635C12.9108 14.4663 12.9037 14.4708 12.8978 14.4764C12.8919 14.4821 12.8872 14.489 12.8842 14.4965C12.8812 14.504 12.8799 14.512 12.8804 14.5201C12.8808 14.5281 12.8831 14.536 12.8869 14.5431C13.1664 15.0611 13.4852 15.5588 13.8406 16.032C13.8478 16.0418 13.858 16.049 13.8698 16.0529C13.8816 16.0567 13.8943 16.0569 13.9062 16.0534C15.5866 15.5598 17.1669 14.7946 18.5791 13.7906C18.586 13.7858 18.5917 13.7796 18.5959 13.7725C18.6001 13.7654 18.6027 13.7575 18.6034 13.7494C18.9931 9.88232 17.951 6.52322 15.8411 3.5454ZM6.2436 11.712C5.323 11.712 4.56445 10.901 4.56445 9.9051C4.56445 8.90917 5.30829 8.09816 6.2436 8.09816C7.18622 8.09816 7.93742 8.91621 7.92271 9.90504C7.92271 10.901 7.17885 11.712 6.2436 11.712ZM12.4519 11.712C11.5313 11.712 10.7728 10.901 10.7728 9.9051C10.7728 8.90917 11.5166 8.09816 12.4519 8.09816C13.3946 8.09816 14.1458 8.91621 14.131 9.90504C14.131 10.901 13.3946 11.712 12.4519 11.712Z" fill="white"/>
</svg>
