<svg width="19" height="18" viewBox="0 0 19 18" fill="none" xmlns="http://www.w3.org/2000/svg">
<path d="M9.34405 4.36817C6.69308 4.36817 4.5548 6.42071 4.5548 8.96539C4.5548 11.5101 6.69308 13.5626 9.34405 13.5626C11.995 13.5626 14.1333 11.5101 14.1333 8.96539C14.1333 6.42071 11.995 4.36817 9.34405 4.36817ZM9.34405 11.9542C7.63092 11.9542 6.23041 10.6138 6.23041 8.96539C6.23041 7.31695 7.62676 5.97659 9.34405 5.97659C11.0613 5.97659 12.4577 7.31695 12.4577 8.96539C12.4577 10.6138 11.0572 11.9542 9.34405 11.9542ZM15.4463 4.18011C15.4463 4.77627 14.9461 5.2524 14.3292 5.2524C13.7082 5.2524 13.2121 4.77227 13.2121 4.18011C13.2121 3.58796 13.7123 3.10783 14.3292 3.10783C14.9461 3.10783 15.4463 3.58796 15.4463 4.18011ZM18.6183 5.26841C18.5474 3.83202 18.2056 2.55968 17.1094 1.5114C16.0173 0.463123 14.6918 0.135036 13.1955 0.0630168C11.6532 -0.0210056 7.0307 -0.0210056 5.48847 0.0630168C3.99626 0.131035 2.67077 0.459122 1.57454 1.5074C0.478301 2.55568 0.140677 3.82802 0.0656491 5.2644C-0.021883 6.7448 -0.021883 11.182 0.0656491 12.6624C0.136508 14.0988 0.478301 15.3711 1.57454 16.4194C2.67077 17.4677 3.99209 17.7957 5.48847 17.8678C7.0307 17.9518 11.6532 17.9518 13.1955 17.8678C14.6918 17.7997 16.0173 17.4717 17.1094 16.4194C18.2015 15.3711 18.5433 14.0988 18.6183 12.6624C18.7058 11.182 18.7058 6.7488 18.6183 5.26841ZM16.6259 14.2508C16.3008 15.035 15.6714 15.6392 14.8502 15.9553C13.6206 16.4234 10.7029 16.3154 9.34405 16.3154C7.98522 16.3154 5.06332 16.4194 3.83787 15.9553C3.0209 15.6432 2.3915 15.039 2.06221 14.2508C1.57454 13.0705 1.68708 10.2697 1.68708 8.96539C1.68708 7.66104 1.5787 4.8563 2.06221 3.67998C2.38733 2.89577 3.01673 2.29161 3.83787 1.97553C5.06748 1.5074 7.98522 1.61543 9.34405 1.61543C10.7029 1.61543 13.6248 1.5114 14.8502 1.97553C15.6672 2.28761 16.2966 2.89177 16.6259 3.67998C17.1136 4.8603 17.001 7.66104 17.001 8.96539C17.001 10.2697 17.1136 13.0745 16.6259 14.2508Z" fill="white"/>
</svg>
