<svg width="19" height="19" viewBox="0 0 19 19" fill="none" xmlns="http://www.w3.org/2000/svg">
<path d="M16.7634 7.57573C16.7753 7.73266 16.7753 7.88961 16.7753 8.04653C16.7753 12.8329 12.9223 18.3478 5.88025 18.3478C3.71071 18.3478 1.69532 17.7537 0 16.7225C0.30825 16.7561 0.604603 16.7673 0.924713 16.7673C2.71484 16.7673 4.36275 16.1957 5.6787 15.2205C3.99524 15.1868 2.58445 14.1444 2.09838 12.7096C2.3355 12.7432 2.57259 12.7656 2.82158 12.7656C3.16537 12.7656 3.5092 12.7208 3.82927 12.6423C2.07469 12.306 0.75871 10.8488 0.75871 9.08899V9.04417C1.26847 9.31319 1.86129 9.48133 2.48957 9.50372C1.45816 8.85357 0.782429 7.74387 0.782429 6.48843C0.782429 5.81588 0.97208 5.19938 1.30405 4.66133C3.18905 6.85834 6.02249 8.2931 9.19969 8.45005C9.14042 8.18103 9.10484 7.90083 9.10484 7.62059C9.10484 5.62532 10.812 4 12.9341 4C14.0367 4 15.0325 4.43716 15.732 5.14334C16.5974 4.98642 17.4273 4.68376 18.1623 4.26902C17.8778 5.10974 17.2731 5.81592 16.4789 6.26426C17.2495 6.18583 17.9964 5.98402 18.6839 5.70382C18.1624 6.42118 17.5103 7.06008 16.7634 7.57573Z" fill="white"/>
</svg>
